HIERARCHY
ROOT Hips
{
	OFFSET 0.000000 0.000000 0.000000
	CHANNELS 6 Xposition Yposition Zposition Zrotation Yrotation Xrotation 
	JOINT LeftUpLeg_virtual
	{
		OFFSET 0.000000 0.000000 0.000000
		CHANNELS 3 Zrotation Yrotation Xrotation
		JOINT LeftUpLeg
		{
			OFFSET 8.479694 -4.795517 -0.379053
			CHANNELS 3 Zrotation Yrotation Xrotation
			JOINT LeftLeg
			{
				OFFSET 0.485052 -32.551468 0.112863
				CHANNELS 3 Zrotation Yrotation Xrotation
				JOINT LeftFoot
				{
					OFFSET 0.438033 -32.635670 -3.012641
					CHANNELS 3 Zrotation Yrotation Xrotation
					JOINT LeftToeBase
					{
						OFFSET 0.970169 -13.225353 11.864223
						CHANNELS 3 Zrotation Yrotation Xrotation
						End Site
						{
							OFFSET 0.000000 0.000000 0.000000
						}
					}
				}
			}
		}
	}
	JOINT RightUpLeg_virtual
	{
		OFFSET 0.000000 0.000000 0.000000
		CHANNELS 3 Zrotation Yrotation Xrotation
		JOINT RightUpLeg
		{
			OFFSET -8.479694 -4.795517 -0.379053
			CHANNELS 3 Zrotation Yrotation Xrotation
			JOINT RightLeg
			{
				OFFSET -0.484100 -32.551483 0.112903
				CHANNELS 3 Zrotation Yrotation Xrotation
				JOINT RightFoot
				{
					OFFSET -0.438985 -32.635651 -3.012681
					CHANNELS 3 Zrotation Yrotation Xrotation
					JOINT RightToeBase
					{
						OFFSET -0.970169 -13.225354 11.864223
						CHANNELS 3 Zrotation Yrotation Xrotation
						End Site
						{
							OFFSET 0.000000 0.000000 0.000000
						}
					}
				}
			}
		}
	}
	JOINT Spine_virtual
	{
		OFFSET 0.000000 0.000000 0.000000
		CHANNELS 3 Zrotation Yrotation Xrotation
		JOINT Spine
		{
			OFFSET 0.000000 7.722015 1.166203
			CHANNELS 3 Zrotation Yrotation Xrotation
			JOINT Spine1
			{
				OFFSET 0.000000 12.024086 0.248766
				CHANNELS 3 Zrotation Yrotation Xrotation
				JOINT Spine2
				{
					OFFSET -0.000000 11.503036 -0.491240
					CHANNELS 3 Zrotation Yrotation Xrotation
					JOINT Neck_virtual
					{
						OFFSET 0.000000 0.000000 0.000000
						CHANNELS 3 Zrotation Yrotation Xrotation
						JOINT Neck
						{
							OFFSET 0.000000 18.430687 -3.123054
							CHANNELS 3 Zrotation Yrotation Xrotation
							JOINT Head
							{
								OFFSET -0.000000 9.051071 1.034021
								CHANNELS 3 Zrotation Yrotation Xrotation
								End Site
								{
									OFFSET 0.000000 0.000000 0.000000
								}
							}
						}
					}
					JOINT LeftShoulder_virtual
					{
						OFFSET 0.000000 0.000000 0.000000
						CHANNELS 3 Zrotation Yrotation Xrotation
						JOINT LeftShoulder
						{
							OFFSET 6.197824 13.665230 -4.064723
							CHANNELS 3 Zrotation Yrotation Xrotation
							JOINT LeftArm
							{
								OFFSET 7.778132 -0.187073 -1.709282
								CHANNELS 3 Zrotation Yrotation Xrotation
								JOINT LeftForeArm
								{
									OFFSET 21.954697 0.000000 -2.041093
									CHANNELS 3 Zrotation Yrotation Xrotation
									JOINT LeftHand
									{
										OFFSET 22.992908 0.000000 -0.870901
										CHANNELS 3 Zrotation Yrotation Xrotation
										End Site
										{
											OFFSET 0.000000 0.000000 0.000000
										}
									}
								}
							}
						}
					}
					JOINT RightShoulder_virtual
					{
						OFFSET 0.000000 0.000000 0.000000
						CHANNELS 3 Zrotation Yrotation Xrotation
						JOINT RightShoulder
						{
							OFFSET -6.197824 13.665230 -4.064723
							CHANNELS 3 Zrotation Yrotation Xrotation
							JOINT RightArm
							{
								OFFSET -7.778132 -0.187073 -1.709282
								CHANNELS 3 Zrotation Yrotation Xrotation
								JOINT RightForeArm
								{
									OFFSET -21.954697 0.000000 -2.041093
									CHANNELS 3 Zrotation Yrotation Xrotation
									JOINT RightHand
									{
										OFFSET -22.992908 0.000000 -0.870901
										CHANNELS 3 Zrotation Yrotation Xrotation
										End Site
										{
											OFFSET 0.000000 0.000000 0.000000
										}
									}
								}
							}
						}
					}
				}
			}
		}
	}
}
MOTION
Frames: 9
Frame Time: 0.033333
2.492779 80.795670 29.753170 179.867226 6.669515 179.955267 -4.472357 0.491495 11.124929 -3.171062 -1.046912 -25.026764 9.608023 5.973398 31.029160 1.406625 -7.420748 -13.987331 0.000000 0.000000 0.000000 -1.835393 -0.750650 11.257665 1.096796 -1.738771 -21.364429 -1.113039 2.536092 27.855212 6.478454 3.010365 -12.273028 0.000000 0.000000 0.000000 1.859511 1.969664 0.193611 -4.729922 0.623648 -2.120846 -0.029069 -2.787696 4.069295 -0.012432 0.005202 -0.022484 -0.051320 -1.792084 5.335646 -6.832046 5.730521 -5.144179 0.000000 0.000000 0.000000 1.375564 -1.099228 2.253386 0.337421 4.551191 -8.776578 -5.283797 -16.722878 -49.982126 2.725128 -30.728755 -0.886816 0.000000 0.000000 0.000000 -2.333727 0.054550 1.799650 19.015713 -7.880447 -12.903441 0.784409 7.766443 -56.513019 2.357682 19.897190 3.007897 0.000000 0.000000 0.000000 
2.481052 80.804237 29.744585 179.972821 6.727617 179.883441 -4.349283 0.654816 11.169897 -3.101605 -1.354122 -25.096507 9.546832 5.876866 31.279449 1.218141 -7.680434 -13.932111 0.000000 0.000000 0.000000 -1.779016 -0.800658 11.248634 1.291596 -1.969915 -21.372996 -0.992980 2.297606 27.979069 6.178186 2.649860 -12.133917 0.000000 0.000000 0.000000 1.889790 1.963810 0.265432 -4.699636 0.593041 -2.105800 0.015089 -2.807265 4.070967 0.041298 0.003150 -0.056163 -0.149442 -1.909510 5.328006 -6.853673 5.828740 -5.193147 0.000000 0.000000 0.000000 1.287663 -1.104045 2.173634 0.222857 4.619571 -8.657574 -5.272709 -16.723834 -49.750606 2.663245 -30.615981 -0.758083 0.000000 0.000000 0.000000 -2.413274 0.079538 1.831115 18.982607 -7.739935 -12.875967 0.850604 7.820905 -56.256395 2.349764 19.881364 2.980762 0.000000 0.000000 0.000000 
2.462414 80.805695 29.740040 179.973285 6.627745 179.877144 -4.389487 0.784293 11.255235 -3.030271 -1.532832 -25.179842 9.490403 5.873680 31.278848 1.253622 -7.669304 -13.869462 0.000000 0.000000 0.000000 -1.736790 -0.786153 11.273567 1.241814 -2.014538 -21.393618 -0.995286 2.279716 28.000661 6.117091 2.633912 -12.181117 0.000000 0.000000 0.000000 1.872524 1.965813 0.299084 -4.737740 0.630800 -2.140789 0.004364 -2.763249 4.072134 0.024334 0.040261 -0.055390 -0.120274 -1.895566 5.338296 -6.817830 5.672747 -5.221139 0.000000 0.000000 0.000000 1.290769 -1.079281 2.253197 0.213730 4.457441 -8.644510 -5.228556 -16.892689 -49.417832 2.691470 -30.492420 -0.760038 0.000000 0.000000 0.000000 -2.404955 0.086026 1.823413 18.975551 -7.804854 -12.848154 0.850797 7.914370 -56.059034 2.395257 19.748674 2.981553 0.000000 0.000000 0.000000 
2.438427 80.807083 29.743397 179.939257 6.449409 179.888331 -4.380539 0.709310 11.313775 -3.036178 -1.599655 -25.254397 9.451852 5.869948 31.261967 1.317219 -7.645882 -13.843583 0.000000 0.000000 0.000000 -1.716774 -0.895132 11.278219 1.166540 -1.990846 -21.436858 -1.032487 2.303804 28.062735 6.059575 2.654451 -12.188150 0.000000 0.000000 0.000000 1.841330 1.926254 0.347866 -4.800728 0.677036 -2.182340 0.008406 -2.739788 4.038289 0.016873 0.037151 0.056382 -0.114908 -1.876714 5.276405 -6.794815 5.642819 -5.246013 0.000000 0.000000 0.000000 1.301100 -1.061520 2.226181 0.149253 4.266753 -8.628148 -5.123888 -17.024848 -48.955244 2.706752 -30.351038 -0.737429 0.000000 0.000000 0.000000 -2.403698 0.133990 1.739362 18.983042 -7.856093 -12.876036 0.812043 8.023053 -55.781827 2.431952 19.610494 2.941044 0.000000 0.000000 0.000000 
2.424124 80.806557 29.747313 179.969802 6.262650 179.966373 -4.389293 0.656003 11.208311 -2.982873 -1.711184 -25.236610 9.436379 5.917118 31.305636 1.312681 -7.711293 -13.844789 0.000000 0.000000 0.000000 -1.640141 -1.008059 11.258908 1.125743 -1.917473 -21.499960 -1.008921 2.364495 28.115154 5.907776 2.582357 -12.231756 0.000000 0.000000 0.000000 1.865338 1.820127 0.326372 -4.842497 0.663024 -2.216296 0.037801 -2.761265 4.058984 0.037272 0.006953 -0.056278 -0.113453 -1.850878 5.398075 -6.729142 5.738447 -5.396210 0.000000 0.000000 0.000000 1.315876 -1.012856 2.268864 0.099318 4.153945 -8.553653 -5.044983 -17.038033 -48.543555 2.723052 -30.334004 -0.678044 0.000000 0.000000 0.000000 -2.405976 0.206283 1.878894 18.955004 -7.774851 -12.883928 0.804292 8.169528 -55.670734 2.489054 19.499297 2.942037 0.000000 0.000000 0.000000 
2.422674 80.808136 29.744207 179.876215 5.939341 179.913958 -4.311795 0.421270 11.200457 -3.164210 -1.680305 -25.143364 9.376579 5.759356 31.233847 1.390452 -7.686166 -13.806118 0.000000 0.000000 0.000000 -1.622848 -1.162721 11.296569 1.033255 -1.971563 -21.524361 -1.043049 2.332500 28.256134 5.851691 2.635443 -12.268790 0.000000 0.000000 0.000000 1.808425 1.773565 0.423665 -4.923297 0.688854 -2.200468 0.044299 -2.737560 4.084302 0.038578 -0.004312 -0.009173 -0.031457 -1.928995 5.366484 -6.682772 5.579020 -5.444690 0.000000 0.000000 0.000000 1.351823 -0.969994 2.314785 -0.030267 3.991998 -8.560593 -4.913437 -17.156542 -48.333284 2.728972 -30.249993 -0.627623 0.000000 0.000000 0.000000 -2.339968 0.159196 1.866849 18.924033 -7.831894 -12.926151 0.793713 8.317777 -55.653734 2.550388 19.475813 2.871753 0.000000 0.000000 0.000000 
2.428729 80.809570 29.731794 179.946361 5.687156 179.940938 -4.332351 0.317490 11.201836 -3.006088 -1.770340 -25.165432 9.382640 5.784564 31.323695 1.392163 -7.775274 -13.854190 0.000000 0.000000 0.000000 -1.529911 -1.221708 11.304369 1.021671 -2.011455 -21.545810 -0.987156 2.336698 28.312020 5.686717 2.542045 -12.321938 0.000000 0.000000 0.000000 1.814449 1.751314 0.525933 -4.919346 0.710508 -2.225793 0.087946 -2.720058 4.082969 0.033443 0.014293 -0.043511 -0.038721 -1.831525 5.417360 -6.591266 5.578577 -5.548516 0.000000 0.000000 0.000000 1.359882 -1.063056 2.370955 -0.041360 4.016887 -8.485075 -5.019719 -17.186380 -48.092626 2.789865 -30.213868 -0.603257 0.000000 0.000000 0.000000 -2.346766 0.173941 1.916057 18.861274 -7.919772 -12.927813 0.929718 8.414159 -55.519070 2.591010 19.547948 2.752251 0.000000 0.000000 0.000000 
2.438140 80.811577 29.713091 179.876187 5.569737 179.923275 -4.235679 0.446594 11.234988 -3.188663 -1.870370 -25.173162 9.315894 5.602879 31.231183 1.478580 -7.705926 -13.724158 0.000000 0.000000 0.000000 -1.485362 -1.187109 11.313947 0.946716 -2.190275 -21.559547 -1.018415 2.266832 28.406193 5.653290 2.584665 -12.405161 0.000000 0.000000 0.000000 1.745363 1.801151 0.663733 -4.944143 0.770371 -2.235290 0.067363 -2.670964 4.099381 -0.009110 0.029980 -0.029969 0.058131 -1.682044 5.448679 -6.517395 5.380828 -5.602729 0.000000 0.000000 0.000000 1.446787 -0.973672 2.469521 -0.019086 3.861181 -8.589951 -5.230763 -17.162326 -47.955011 2.853709 -30.226295 -0.602455 0.000000 0.000000 0.000000 -2.249059 0.181450 1.950802 18.908310 -7.977274 -12.915281 0.899186 8.478796 -55.682755 2.727882 19.558950 2.700118 0.000000 0.000000 0.000000 
2.439654 80.817101 29.686853 179.926143 5.426746 179.823130 -4.219624 0.547604 11.341577 -3.163576 -1.933853 -25.196764 9.320427 5.528867 31.243058 1.438784 -7.817326 -13.717975 0.000000 0.000000 0.000000 -1.432893 -1.225350 11.395835 0.915698 -2.241843 -21.521076 -0.959334 2.300394 28.471546 5.621610 2.577156 -12.348804 0.000000 0.000000 0.000000 1.750597 1.741490 0.869817 -4.882753 0.793911 -2.203780 0.059902 -2.626307 4.136860 -0.028933 0.066337 -0.022991 0.062881 -1.618932 5.463317 -6.410415 5.241011 -5.632550 0.000000 0.000000 0.000000 1.440126 -0.944975 2.510811 -0.069823 3.811188 -8.456582 -5.399007 -17.145834 -47.887634 3.048801 -30.177439 -0.702432 0.000000 0.000000 0.000000 -2.261209 0.210672 1.949688 18.862121 -8.041084 -12.824774 0.993197 8.513955 -55.694643 2.770009 19.582547 2.662893 0.000000 0.000000 0.000000 
